<?xml version="1.0" standalone="no"?>
<!DOCTYPE svg PUBLIC "-//W3C//DTD SVG 20010904//EN"
 "http://www.w3.org/TR/2001/REC-SVG-20010904/DTD/svg10.dtd">
<svg version="1.0" xmlns="http://www.w3.org/2000/svg"
 width="200.000000pt" height="200.000000pt" viewBox="0 0 200.000000 200.000000"
 preserveAspectRatio="xMidYMid meet">
<metadata>
Created by potrace 1.11, written by Peter Selinger 2001-2013
</metadata>
<g transform="translate(0.000000,200.000000) scale(0.100000,-0.100000)"
fill="#000000" stroke="none">
<path d="M875 1893 c-11 -2 -55 -13 -98 -24 -313 -78 -565 -330 -648 -647 -29
-108 -33 -289 -9 -402 66 -316 293 -571 603 -675 107 -35 142 -40 297 -39 115
1 148 5 223 28 159 48 288 125 399 239 112 115 188 248 229 402 32 118 32 338
1 449 -98 344 -362 590 -707 662 -37 7 -262 13 -290 7z"/>
</g>
</svg>
